<mxfile host="Electron" modified="2024-01-26T11:47:43.539Z" agent="Mozilla/5.0 (Windows NT 10.0; Win64; x64) AppleWebKit/537.36 (KHTML, like Gecko) draw.io/22.1.21 Chrome/120.0.6099.109 Electron/28.1.0 Safari/537.36" etag="ZfcSuvjHfBDjI6_gRCrs" version="22.1.21" type="device">
  <diagram name="Seite-1" id="qSU0O-EVbq0HCuzVo5mC">
    <mxGraphModel dx="819" dy="478" grid="1" gridSize="10" guides="1" tooltips="1" connect="1" arrows="1" fold="1" page="0" pageScale="1" pageWidth="827" pageHeight="1169" math="0" shadow="0">
      <root>
        <mxCell id="0" />
        <mxCell id="1" parent="0" />
        <mxCell id="pXO75YiAVBvj5hHbPv8A-1" value="" style="ellipse;html=1;shape=startState;fillColor=#000000;strokeColor=#ff0000;" parent="1" vertex="1">
          <mxGeometry x="350" y="120" width="30" height="30" as="geometry" />
        </mxCell>
        <mxCell id="pXO75YiAVBvj5hHbPv8A-3" value="Turmobjekt vom Feldobjekt entfernen" style="rounded=1;whiteSpace=wrap;html=1;arcSize=40;fontColor=#000000;fillColor=#ffffc0;strokeColor=#ff0000;" parent="1" vertex="1">
          <mxGeometry x="430" y="240" width="120" height="40" as="geometry" />
        </mxCell>
        <mxCell id="pXO75YiAVBvj5hHbPv8A-4" value="" style="edgeStyle=orthogonalEdgeStyle;html=1;verticalAlign=bottom;endArrow=open;endSize=8;strokeColor=#ff0000;rounded=0;entryX=0.5;entryY=0;entryDx=0;entryDy=0;" parent="1" source="pXO75YiAVBvj5hHbPv8A-3" target="pXO75YiAVBvj5hHbPv8A-6" edge="1">
          <mxGeometry relative="1" as="geometry">
            <mxPoint x="490" y="320" as="targetPoint" />
          </mxGeometry>
        </mxCell>
        <mxCell id="pXO75YiAVBvj5hHbPv8A-9" style="edgeStyle=orthogonalEdgeStyle;rounded=0;orthogonalLoop=1;jettySize=auto;html=1;exitX=0.5;exitY=1;exitDx=0;exitDy=0;strokeColor=#FF0000;endArrow=open;endFill=0;entryX=0.5;entryY=0;entryDx=0;entryDy=0;" parent="1" source="pXO75YiAVBvj5hHbPv8A-6" target="pXO75YiAVBvj5hHbPv8A-12" edge="1">
          <mxGeometry relative="1" as="geometry">
            <mxPoint x="490" y="390" as="targetPoint" />
          </mxGeometry>
        </mxCell>
        <mxCell id="pXO75YiAVBvj5hHbPv8A-6" value="Turm löschen" style="rounded=1;whiteSpace=wrap;html=1;arcSize=40;fontColor=#000000;fillColor=#ffffc0;strokeColor=#ff0000;" parent="1" vertex="1">
          <mxGeometry x="430" y="320" width="120" height="40" as="geometry" />
        </mxCell>
        <mxCell id="pXO75YiAVBvj5hHbPv8A-8" value="" style="ellipse;html=1;shape=endState;fillColor=#000000;strokeColor=#ff0000;" parent="1" vertex="1">
          <mxGeometry x="475" y="460" width="30" height="30" as="geometry" />
        </mxCell>
        <mxCell id="pXO75YiAVBvj5hHbPv8A-11" value="Hammer auf Feld gezogen" style="text;html=1;align=center;verticalAlign=middle;resizable=0;points=[];autosize=1;strokeColor=none;fillColor=none;" parent="1" vertex="1">
          <mxGeometry x="370" y="120" width="170" height="30" as="geometry" />
        </mxCell>
        <mxCell id="pXO75YiAVBvj5hHbPv8A-12" value="Anzeige aktualisieren" style="rounded=1;whiteSpace=wrap;html=1;arcSize=40;fontColor=#000000;fillColor=#ffffc0;strokeColor=#ff0000;" parent="1" vertex="1">
          <mxGeometry x="430" y="390" width="120" height="40" as="geometry" />
        </mxCell>
        <mxCell id="pXO75YiAVBvj5hHbPv8A-13" style="edgeStyle=orthogonalEdgeStyle;rounded=0;orthogonalLoop=1;jettySize=auto;html=1;exitX=0.5;exitY=1;exitDx=0;exitDy=0;strokeColor=#FF0000;endArrow=open;endFill=0;entryX=0.5;entryY=0;entryDx=0;entryDy=0;" parent="1" source="pXO75YiAVBvj5hHbPv8A-12" target="pXO75YiAVBvj5hHbPv8A-8" edge="1">
          <mxGeometry relative="1" as="geometry">
            <mxPoint x="500" y="370" as="sourcePoint" />
            <mxPoint x="500" y="400" as="targetPoint" />
          </mxGeometry>
        </mxCell>
        <mxCell id="pXO75YiAVBvj5hHbPv8A-14" value="" style="rhombus;whiteSpace=wrap;html=1;fontColor=#000000;fillColor=#ffffc0;strokeColor=#ff0000;" parent="1" vertex="1">
          <mxGeometry x="325" y="190" width="80" height="40" as="geometry" />
        </mxCell>
        <mxCell id="pXO75YiAVBvj5hHbPv8A-15" value="[ Feld hat Turm ]" style="edgeStyle=orthogonalEdgeStyle;html=1;align=left;verticalAlign=bottom;endArrow=open;endSize=8;strokeColor=#ff0000;rounded=0;entryX=0.5;entryY=0;entryDx=0;entryDy=0;" parent="1" source="pXO75YiAVBvj5hHbPv8A-14" target="pXO75YiAVBvj5hHbPv8A-3" edge="1">
          <mxGeometry x="-1" relative="1" as="geometry">
            <mxPoint x="505" y="210" as="targetPoint" />
            <mxPoint as="offset" />
          </mxGeometry>
        </mxCell>
        <mxCell id="pXO75YiAVBvj5hHbPv8A-16" value="[ Feld hat keinen Turm ]" style="edgeStyle=orthogonalEdgeStyle;html=1;align=left;verticalAlign=top;endArrow=open;endSize=8;strokeColor=#ff0000;rounded=0;entryX=0;entryY=0.5;entryDx=0;entryDy=0;exitX=0.5;exitY=1;exitDx=0;exitDy=0;" parent="1" source="pXO75YiAVBvj5hHbPv8A-14" target="pXO75YiAVBvj5hHbPv8A-8" edge="1">
          <mxGeometry x="-1" y="-125" relative="1" as="geometry">
            <mxPoint x="365" y="290" as="targetPoint" />
            <mxPoint as="offset" />
          </mxGeometry>
        </mxCell>
        <mxCell id="pXO75YiAVBvj5hHbPv8A-17" value="" style="edgeStyle=orthogonalEdgeStyle;html=1;verticalAlign=bottom;endArrow=open;endSize=8;strokeColor=#ff0000;rounded=0;entryX=0.5;entryY=0;entryDx=0;entryDy=0;exitX=0.5;exitY=1;exitDx=0;exitDy=0;" parent="1" source="pXO75YiAVBvj5hHbPv8A-1" target="pXO75YiAVBvj5hHbPv8A-14" edge="1">
          <mxGeometry relative="1" as="geometry">
            <mxPoint x="500" y="330" as="targetPoint" />
            <mxPoint x="500" y="290" as="sourcePoint" />
          </mxGeometry>
        </mxCell>
        <mxCell id="3xxlTa2titzCJY89cKIN-1" value="Aktivitätsdiagramm: Turm entfernen" style="text;html=1;strokeColor=none;fillColor=none;align=center;verticalAlign=middle;whiteSpace=wrap;rounded=0;fontSize=18;" vertex="1" parent="1">
          <mxGeometry x="10" y="50" width="710" height="30" as="geometry" />
        </mxCell>
      </root>
    </mxGraphModel>
  </diagram>
</mxfile>
